<svg xmlns="http://www.w3.org/2000/svg" viewBox="0 0 512.001 512.001"><path d="M306.297 301.13c8.183 19.09 30.295 27.934 49.384 19.751 19.09-8.17 27.934-30.282 19.764-49.371l-69.148 29.62zm-18.584 66.036c-9.324.571-20.153 1.932-31.708 1.932h-.013c-11.542 0-22.371-1.362-31.708-1.932-19.038-1.193-31.838.895-31.838 24.446 0 29.491 20.101 54.299 47.348 61.458a63.507 63.507 0 0 0 16.198 2.088c5.602 0 11.036-.726 16.224-2.088 27.247-7.172 47.322-31.968 47.322-61.458 0-23.551-12.8-25.639-31.825-24.446zM205.7 301.13l-69.149-29.62c-8.183 19.09.674 41.201 19.764 49.371 19.09 8.183 41.202-.661 49.385-19.751zm223.072-16.807v43.925c0 2.788-.065 5.564-.195 8.326-2.646 55.804-31.773 104.67-75.075 134.329-.376.272-.765.519-1.141.778-27.519 18.519-60.667 29.335-96.357 29.335s-68.837-10.816-96.37-29.335c-.363-.259-.752-.506-1.128-.778-43.315-29.659-72.443-78.525-75.088-134.329a177.09 177.09 0 0 1-.195-8.326V183.777c0-8.118.558-16.107 1.647-23.927 9.298 7.146 19.738 13.708 31.462 19.401 28.751 13.954 62.197-7.172 62.197-39.126v-.506c0-20.218-14.019-37.531-33.679-42.278a244.098 244.098 0 0 1-32.123-10.167c31.06-45.961 83.634-76.178 143.277-76.178 47.711 0 90.91 19.336 122.164 50.603a173.61 173.61 0 0 1 21.1 25.574v.013a244.098 244.098 0 0 1-32.123 10.154c-19.66 4.747-33.679 22.06-33.679 42.278v.506c0 31.955 33.446 53.08 62.197 39.126 11.737-5.693 22.176-12.255 31.462-19.401a173.42 173.42 0 0 1 1.647 23.927v100.547z" fill="#f95428"/><path d="M212.791 471.68c-.363-.259-.752-.519-1.128-.791-43.302-29.646-72.443-78.525-75.088-134.316a177.09 177.09 0 0 1-.195-8.326v-144.47c0-48.088 19.647-91.597 51.356-122.916 25.236-24.931 58.116-42.147 94.809-47.82a172.895 172.895 0 0 0-26.539-2.044c-47.335 0-90.223 19.038-121.425 49.864-31.708 31.319-51.356 74.829-51.356 122.916v144.471c0 2.788.065 5.564.195 8.326 2.646 55.791 31.786 104.669 75.088 134.316.376.272.765.532 1.128.791 27.532 18.519 60.68 29.335 96.37 29.335 9.039 0 17.914-.7 26.578-2.037-25.543-3.944-49.235-13.471-69.793-27.299z" fill="#e54728"/><g fill="#fcd69a"><path d="M178.531 139.619v.506c0 7.963-2.075 15.251-5.641 21.489-10.738 18.817-34.963 28.116-56.556 17.637-11.724-5.693-22.163-12.255-31.462-19.401C12.208 103.981 9.731 12.125 9.731 12.125s0 .013.026.039c1.089 1.465 36.39 48.814 102.971 75.01a244.098 244.098 0 0 0 32.123 10.167c19.66 4.747 33.68 22.06 33.68 42.278zM502.279 12.125s-2.49 91.857-75.153 147.725c-9.286 7.146-19.725 13.708-31.462 19.401-28.751 13.954-62.197-7.172-62.197-39.126v-.506c0-20.218 14.019-37.531 33.679-42.278a244.098 244.098 0 0 0 32.123-10.154v-.013c67.657-26.612 103.01-75.049 103.01-75.049z"/></g><g fill="#d3a562"><path d="M172.889 161.614c-10.738 18.817-34.963 28.116-56.556 17.637-11.724-5.693-22.163-12.255-31.462-19.401C12.208 103.981 9.731 12.125 9.731 12.125s0 .013.026.039c.986 2.399 47.556 113.462 163.132 149.45zM339.121 161.614c10.738 18.817 34.963 28.116 56.556 17.637 11.724-5.693 22.163-12.255 31.462-19.401 72.663-55.869 75.14-147.725 75.14-147.725s0 .013-.026.039c-.986 2.399-47.556 113.462-163.132 149.45z"/></g><g fill="#f2f2f2"><path d="M375.446 271.51c8.17 19.09-.674 41.201-19.764 49.371-19.09 8.183-41.201-.661-49.384-19.751l69.148-29.62zM136.551 271.51l69.149 29.62c-8.183 19.09-30.295 27.934-49.384 19.751-19.09-8.17-27.948-30.282-19.765-49.371z"/></g><path d="M287.713 367.166c19.025-1.193 31.825.895 31.825 24.446 0 29.491-20.075 54.286-47.322 61.458a63.785 63.785 0 0 1-16.224 2.088 63.519 63.519 0 0 1-16.198-2.088c-27.247-7.159-47.348-31.968-47.348-61.458 0-23.551 12.8-25.639 31.838-24.446 9.337.571 20.166 1.932 31.708 1.932h.013c11.555 0 22.384-1.362 31.708-1.932z" fill="#666"/><g fill="#e54728"><path d="M83.224 328.247c0 2.788.065 5.564.195 8.326-22.63-6.601-39.165-27.506-39.165-52.263 0-24.679 16.444-45.546 38.971-52.199v96.136zM428.772 232.111c22.526 6.653 38.971 27.519 38.971 52.199 0 24.757-16.535 45.662-39.165 52.263.13-2.762.195-5.538.195-8.326v-43.925l-.001-52.211z"/></g><path d="M342.227 81.088c-2.072 0-4.16-.66-5.929-2.023-23.107-17.806-50.872-27.217-80.292-27.217-5.372 0-9.726-4.355-9.726-9.726s4.355-9.726 9.726-9.726c33.755 0 65.625 10.809 92.165 31.261 4.255 3.278 5.047 9.387 1.768 13.642a9.718 9.718 0 0 1-7.712 3.789z" fill="#fff"/><g fill="#f2f2f2"><path d="M224.284 408.652c-5.372 0-9.726-4.355-9.726-9.726v-31.76c0-5.372 4.355-9.765 9.726-9.765 5.372 0 9.726 4.316 9.726 9.688v31.838c0 5.371-4.355 9.725-9.726 9.725zM256.005 408.652c-5.372 0-9.726-4.355-9.726-9.726v-29.828c0-5.372 4.355-9.726 9.726-9.726s9.726 4.355 9.726 9.726v29.828c0 5.372-4.355 9.726-9.726 9.726zM287.713 408.652c-5.372 0-9.726-4.355-9.726-9.726v-31.76c0-5.372 4.355-9.765 9.726-9.765 5.372 0 9.726 4.316 9.726 9.688v31.838c.001 5.371-4.354 9.725-9.726 9.725zM239.794 462.796c-5.372 0-9.726-4.355-9.726-9.726v-26.91c0-5.372 4.355-9.726 9.726-9.726 5.372 0 9.726 4.355 9.726 9.726v26.91c.001 5.371-4.354 9.726-9.726 9.726zM272.216 462.796c-5.372 0-9.726-4.355-9.726-9.726v-26.91c0-5.372 4.355-9.726 9.726-9.726s9.726 4.355 9.726 9.726v26.91c0 5.371-4.355 9.726-9.726 9.726z"/></g><path d="M402.55 249.217c-5.372 0-9.726-4.355-9.726-9.726v-27.234c0-5.372 4.355-9.726 9.726-9.726 5.372 0 9.726 4.355 9.726 9.726v27.234c0 5.371-4.354 9.726-9.726 9.726z" fill="#fff"/><g fill="#333"><path d="M147.974 237.971l5.602-2.4a10.394 10.394 0 0 1 11.503 2.215l33.139 33.139c5.829 5.829 13.486 8.743 21.143 8.743s15.315-2.914 21.143-8.743c3.798-3.798 3.798-9.957 0-13.754-3.799-3.798-9.957-3.798-13.755 0-4.075 4.073-10.702 4.073-14.776 0l-33.139-33.139c-8.694-8.695-21.616-11.183-32.921-6.34l-5.601 2.4c-4.938 2.115-7.225 7.834-5.108 12.771 2.115 4.939 7.834 7.225 12.77 5.108zM292.633 279.668c7.657 0 15.315-2.914 21.143-8.743l33.139-33.139a10.393 10.393 0 0 1 11.503-2.215l5.601 2.4c4.937 2.116 10.655-.17 12.771-5.108 2.116-4.937-.171-10.655-5.108-12.771l-5.601-2.4c-11.303-4.844-24.227-2.355-32.922 6.34L300.02 257.17c-4.075 4.073-10.702 4.073-14.776 0-3.799-3.798-9.957-3.798-13.755 0s-3.798 9.957 0 13.754c5.83 5.83 13.488 8.744 21.144 8.744z"/><path d="M496.836 80.342C511 43.699 511.963 13.643 511.997 12.383a9.723 9.723 0 0 0-6.574-9.458 9.732 9.732 0 0 0-10.997 3.451c-.375.511-32.215 43.105-91.72 68.835a183.817 183.817 0 0 0-17.659-20.49C350.591 20.248 304.763 1.265 256.004 1.265c-58.046 0-112.291 27.506-146.701 73.947C49.794 49.482 17.952 6.888 17.584 6.386A9.726 9.726 0 1 0 .003 12.381C.037 13.643 1 43.698 15.165 80.34c13.114 33.928 33.327 62.258 59.404 83.651a184.75 184.75 0 0 0-1.074 19.778V225.3c-23.266 9.973-38.968 33.268-38.968 59.01 0 26.009 15.993 49.47 39.631 59.285 4.581 54.333 33.283 104.082 78.762 135.265.246.176.497.346.744.514l.309.211c.077.054.153.108.231.161 30.143 20.275 65.344 30.991 101.798 30.991 36.46 0 71.658-10.717 101.888-31.061l.318-.214c.294-.196.587-.394.878-.6 45.472-31.186 74.169-80.933 78.748-135.264 23.638-9.815 39.632-33.276 39.632-59.285 0-25.741-15.702-49.038-38.969-59.01v-41.528c0-6.614-.368-13.24-1.073-19.772 26.082-21.397 46.296-49.729 59.412-83.661zm-8.727-38.358c-8.205 36.433-31.413 96.796-96.698 128.511-10.414 5.059-22.51 4.398-32.362-1.768-9.929-6.215-15.857-16.907-15.857-28.6v-.504c0-15.601 10.789-29.103 26.237-32.833 56.341-13.604 96.102-43.425 118.68-64.806zM33.553 73.955c-4.539-11.634-7.626-22.621-9.72-32.026 22.569 21.384 62.348 51.245 118.737 64.862 15.448 3.73 26.237 17.231 26.237 32.833v.504c0 11.694-5.928 22.384-15.857 28.6-9.851 6.165-21.949 6.825-32.362 1.768-40.418-19.636-69.701-52.117-87.035-96.541zM53.98 284.311c0-14.952 7.602-28.716 19.515-36.91v73.825c-11.917-8.192-19.515-21.948-19.515-36.915zm404.034 0c0 14.968-7.598 28.724-19.516 36.915V247.4c11.914 8.193 19.516 21.958 19.516 36.911zm-38.969-100.539v144.47c0 53.834-26.557 104.162-71.039 134.631-.07.048-.139.096-.207.145-.128.092-.261.179-.39.266l-.477.323c-26.909 18.107-58.35 27.678-90.927 27.678-32.534 0-63.944-9.547-90.845-27.614-.2-.141-.405-.28-.611-.419-.112-.077-.227-.152-.338-.232a5.208 5.208 0 0 0-.209-.147c-44.49-30.463-71.051-80.793-71.051-134.63v-144.47c0-2.131.052-4.26.134-6.388a192.218 192.218 0 0 0 19.005 10.61c7.356 3.574 15.239 5.346 23.101 5.346 9.75 0 19.463-2.727 28.082-8.122 15.647-9.794 24.988-26.649 24.988-45.088v-.504c0-24.618-16.911-45.896-41.123-51.742a231.317 231.317 0 0 1-18.885-5.42c30.854-38.869 77.723-61.743 127.752-61.743 43.561 0 84.505 16.959 115.287 47.754a164.496 164.496 0 0 1 12.463 13.989 231.456 231.456 0 0 1-18.886 5.421c-24.214 5.846-41.125 27.125-41.125 51.742v.504c0 18.439 9.341 35.294 24.988 45.088 8.62 5.396 18.332 8.122 28.083 8.122 7.859 0 15.745-1.771 23.101-5.346a192.265 192.265 0 0 0 18.998-10.604c.079 2.124.131 4.252.131 6.38z"/><path d="M359.509 329.827c23.992-10.278 35.15-38.158 24.872-62.149-2.115-4.938-7.833-7.225-12.77-5.111l-69.141 29.618a9.721 9.721 0 0 0-5.2 5.326 9.695 9.695 0 0 0-.674 3.159h-.012c-.083 1.775-1.277 43.813 64.971 73.414a9.692 9.692 0 0 0 3.962.848 9.73 9.73 0 0 0 3.973-18.609c-16.87-7.537-28.413-15.684-36.319-23.338 2.555.425 5.147.668 7.763.668a47.119 47.119 0 0 0 18.575-3.826zm9.212-44.86c.534 11.294-5.884 22.272-16.872 26.98-6.847 2.932-14.425 3.023-21.339.257a27.784 27.784 0 0 1-9.844-6.65l48.055-20.587zM319.893 364.839c-10.187-9.367-25.064-8.113-42.285-6.662-6.943.585-14.125 1.189-21.611 1.189-7.485 0-14.667-.604-21.611-1.189-17.224-1.451-32.099-2.704-42.285 6.662-6.309 5.8-9.375 14.555-9.375 26.767 0 40.402 32.87 73.273 73.273 73.273s73.273-32.87 73.273-73.273c-.002-12.212-3.069-20.968-9.379-26.767zm-37.952 73.902v-12.586c0-5.372-4.355-9.726-9.726-9.726s-9.726 4.355-9.726 9.726v18.865a54.107 54.107 0 0 1-6.491.406 54.32 54.32 0 0 1-6.478-.403v-18.867c0-5.372-4.355-9.726-9.726-9.726-5.372 0-9.726 4.355-9.726 9.726v12.594c-16.61-9.173-27.889-26.863-27.889-47.143 0-4.382.536-10.1 3.088-12.446 1.764-1.621 5.08-2.305 9.295-2.481v22.242c0 5.372 4.355 9.726 9.726 9.726 5.372 0 9.726-4.355 9.726-9.726v-21.254c3.856.324 7.97.654 12.264.879v20.375c0 5.372 4.355 9.726 9.726 9.726 5.372 0 9.726-4.355 9.726-9.726v-20.376c4.29-.224 8.4-.555 12.251-.878v21.254c0 5.372 4.355 9.726 9.726 9.726s9.726-4.355 9.726-9.726v-22.244c4.216.176 7.532.862 9.295 2.483 2.552 2.346 3.088 8.064 3.088 12.446.001 20.273-11.273 37.959-27.875 47.134zM243.353 294.524c0-5.372-4.355-9.726-9.726-9.726-5.372 0-9.726 4.355-9.726 9.726v31.328c0 15.263 12.416 27.679 27.679 27.679h8.837c15.263 0 27.679-12.416 27.679-27.679v-31.328c0-5.372-4.355-9.726-9.726-9.726-5.372 0-9.726 4.355-9.726 9.726v31.328c0 4.536-3.69 8.226-8.226 8.226h-8.837c-4.536 0-8.226-3.69-8.226-8.226v-31.328zM215.409 300.669c-.001-.03-.012-.058-.014-.088a9.698 9.698 0 0 0-.672-3.07 9.718 9.718 0 0 0-5.2-5.326l-69.141-29.618c-4.937-2.114-10.655.172-12.77 5.111-4.979 11.622-5.133 24.487-.436 36.226 4.699 11.738 13.686 20.944 25.308 25.923a47.076 47.076 0 0 0 18.574 3.824c2.565 0 5.11-.231 7.618-.641-7.902 7.67-19.41 15.822-36.173 23.311a9.726 9.726 0 0 0-4.913 12.848 9.727 9.727 0 0 0 12.848 4.913c66.25-29.601 65.056-71.638 64.971-73.413zm-55.264 11.277c-10.99-4.708-17.406-15.684-16.872-26.98l48.056 20.586a27.815 27.815 0 0 1-9.844 6.65c-6.915 2.768-14.494 2.677-21.34-.256z"/></g></svg>