<svg xmlns="http://www.w3.org/2000/svg" viewBox="0 0 568 459.22"><defs><style>.cls-1{fill:url(#linear-gradient)}</style><linearGradient id="linear-gradient" x1="284" x2="284" y2="459.22" gradientUnits="userSpaceOnUse"><stop offset="0" stop-color="#7f0003"/><stop offset=".14" stop-color="#a20002"/><stop offset=".3" stop-color="#c40001"/><stop offset=".46" stop-color="#de0001"/><stop offset=".63" stop-color="#f00000"/><stop offset=".81" stop-color="#fb0000"/><stop offset="1" stop-color="red"/></linearGradient></defs><title>Asset 1</title><g id="Layer_2" data-name="Layer 2"><path class="cls-1" d="M87.92 196.08L284 0l197.93 197.93c-7.83 1.25-15.61 2.8-23.42 4.16-1.6.28-3.33 0-4.86.51-3 .9-5.82 2.13-8.73 3.2-7.2 2.64-12.66 7.16-15.05 14.63a44.67 44.67 0 0 0-1.76 9.4c-.54 5.79-.79 11.6-1.14 17.41a14.58 14.58 0 0 0 0 2.61c.78 6.45 1.51 12.91 2.43 19.34 1 6.81 2.13 13.59 3.22 20.38a5.62 5.62 0 0 1-1 4.35c-3.53 5.14-8.59 7.93-14.33 9.67-7.71 2.34-15.66 2.21-23.61 2.25-10.21.06-20.28-1.48-30.24-3.27a110 110 0 0 0-24.87-1.15 30.5 30.5 0 0 0-10.62 2.58 152.54 152.54 0 0 0-19.22 9.59c-8.91 5.41-14.86 13-15.31 24.09-.28 6.84 0 13.68-.46 20.55-.93 13.91-.6 27.9-.75 41.85a4.46 4.46 0 0 1-4.25 4.8c0-2.41.11-4.81 0-7.2q-1.19-22.21-2.51-44.41c-.13-2.18-1.12-4.33-1.06-6.48A48.34 48.34 0 0 0 278 322.1c-4.49-8.16-11.15-14.61-20.79-17a49.71 49.71 0 0 1-8.27-2.74c-3.63-1.61-7.41-2-11.3-2.39-9.52-.88-18.44 2-27.4 4.35-7.38 1.9-14.55 4.64-21.83 7a10.51 10.51 0 0 1-2.84.51c-5.41.17-10.82.31-16.24.38-2.9 0-5.8-.28-8.69-.13-4.7.23-10.68-3.65-11.94-8.24a107.62 107.62 0 0 1-2.42-11c-.7-4.27-1.12-8.6-1.58-12.9-.22-2-.32-4-.38-6.06-.13-4.15 0-8.32-.33-12.46a70.31 70.31 0 0 0-1.41-9.49 88 88 0 0 0-3.18-12.63c-2.4-6.43-5.3-12.67-8.11-18.94-1.46-3.26-2.66-6.81-4.88-9.49a31.76 31.76 0 0 0-8.88-7.3c-6.12-3.42-12.94-5.05-19.86-6.09-3.23-.54-6.49-.97-9.75-1.4zm403.9 11.74q-5 1.7-9.94 3.47c-7.32 2.61-12.84 7.76-17.83 13.51-1.65 1.9-3 4-4.79 5.84-4.74 4.87-6.94 10.95-8.1 17.38-1.74 9.62-3.2 19.3-4.53 29a52.55 52.55 0 0 0-.37 11c.49 6.49-.8 12.83-2 19-.76 4-3.69 7.82-6.22 11.3-4.23 5.81-10.24 9.6-16.48 13-1.28.69-2.5 1.48-3.8 2.13-7.82 3.85-15.94 6.35-24.8 5.74-6.18-.43-12.38-.65-18.56-1.21-12.25-1.1-24.29-.89-36.33 2.41-5.77 1.58-8.18 5.08-9.42 10.07-3.78 15.25-5.88 30.82-8.23 46.33-.46 3-.93 6.05-1.38 9 2.31 1.46 3.92.14 5.37-.28l3.5 4.13 5.3-4.39.39.25-1 2.74 3.29-.73 4.28 1.74a6.82 6.82 0 0 0 .31 1.66c.23.56.65 1.37 1.1 1.44a5.59 5.59 0 0 1 5 5c.09.5 1.06 1 1.7 1.17a9.7 9.7 0 0 0 2.89 0c3.14-.35 5.51 1.56 8.14 2.72 1.32.58 2.52 1.48 4 .23a2.07 2.07 0 0 1 1.67 0c2.56.89 4.73.07 6.85-1.31a5.83 5.83 0 0 1 3.06-.92l-3.37 3.59c.52.43.94 1.07 1.35 1.07 3.81 0 6.44 2.45 9.2 4.44 2 1.41 3.8 2.19 6.16 1.56a4.76 4.76 0 0 1 1.28.06l1.21 6.16h4.68l-2.58 4.2c3.34 2.28 6.28 4.85 4.39 9 .72 1.24 1.33 2.39 2 3.46L568 284zM178.4 453.48c.52-1 .84-2.1 1.35-3.41 3.95.22 6.62-2.72 9.81-4.62 1.91-1.13 4-2 5.87-3.16a6.93 6.93 0 0 0 2.45-2.63 67.88 67.88 0 0 0 2.67-6.73c.9-2.49 1.84-4.84 4.59-6 1-.44 1.79-1.59 2.85-2.58l1.08 2.19c3.33-1.82 5.19-5.6 9.49-6.55-1.6 2.35-4.56 3.44-3.76 6.75 3.35-5.4 9-7.69 14.12-11.15l.92 2.39c.24 0 .57 0 .77-.09 1.34-.94 2.53-2.32 4-2.79 2.82-.9 5.37-2.87 8.6-2.43a4.44 4.44 0 0 0 2.11-.51 22 22 0 0 0 2.19-1.18c3.16 2.79 3.16 2.79 6.5-1.87l1.47 3.65c2.07-1.19 3.51-5.07 3-7.86-.17-1-.48-1.88-.63-2.83-1.51-9.86-3.08-19.71-4.44-29.58a18.49 18.49 0 0 1 .31-6.88 21.14 21.14 0 0 0 .13-7.48 17.69 17.69 0 0 0-.38-3.95c-.48-1.39-1.15-3.2-2.28-3.8-4.67-2.47-9-5.68-14.26-7-6.08-1.52-12.14-1-18.21-.44-2.39.21-4.7 1.1-7.08 1.56a68.12 68.12 0 0 1-9.15 1.5c-6.08.32-12.18.5-18.27.34a69.37 69.37 0 0 1-10.92-1.53c-4.61-.88-8.77-3-12.85-5.25a57.56 57.56 0 0 0-5.3-2.31c-4.82-2.11-9.08-5.07-13.4-8.06a45.8 45.8 0 0 1-10.45-9.88 18.06 18.06 0 0 1-3.78-11.87c.24-7.46 1-14.91 1-22.37a145.76 145.76 0 0 0-1.44-17.61 71.87 71.87 0 0 0-2.48-11.31c-.68-2.29-2.16-4.32-3.1-6.55a106.08 106.08 0 0 0-11.59-20.05c-3.45-4.82-8.18-8.73-12.35-13-1.62-1.66-3.31-3.26-4.9-4.95a13.68 13.68 0 0 0-5.66-3.9c-2.62-.87-5.19-1.92-7.78-2.89L0 284l175.22 175.22c1.12-1.88 2.18-3.8 3.18-5.74z" id="Capa_1" data-name="Capa 1"/></g></svg>